<svg width="18" height="18" viewBox="0 0 18 18" fill="none" xmlns="http://www.w3.org/2000/svg">
<path d="M8.9974 17.3332C4.3949 17.3332 0.664062 13.6023 0.664062 8.99984C0.664062 4.39734 4.3949 0.666504 8.9974 0.666504C13.5999 0.666504 17.3307 4.39734 17.3307 8.99984C17.3307 13.6023 13.5999 17.3332 8.9974 17.3332ZM8.9974 15.6665C10.7655 15.6665 12.4612 14.9641 13.7114 13.7139C14.9617 12.4636 15.6641 10.7679 15.6641 8.99984C15.6641 7.23173 14.9617 5.53603 13.7114 4.28579C12.4612 3.03555 10.7655 2.33317 8.9974 2.33317C7.22929 2.33317 5.53359 3.03555 4.28335 4.28579C3.03311 5.53603 2.33073 7.23173 2.33073 8.99984C2.33073 10.7679 3.03311 12.4636 4.28335 13.7139C5.53359 14.9641 7.22929 15.6665 8.9974 15.6665ZM9.83073 8.99984H13.1641V10.6665H8.16406V4.83317H9.83073V8.99984Z" fill="black"/>
</svg>
